<svg id="Layer_1" enable-background="new 0 0 512 512" height="512" viewBox="0 0 512 512" width="512" xmlns="http://www.w3.org/2000/svg"><g><path d="m472.505 246.06h-433.01c-11.379 0-20.604-9.225-20.604-20.604v-85.454c0-11.379 9.225-20.604 20.604-20.604h433.01c11.379 0 20.604 9.225 20.604 20.604v85.454c0 11.379-9.225 20.604-20.604 20.604z" fill="#ffd4e6"/><path d="m472.505 119.398h-41.207c11.379 0 20.604 9.225 20.604 20.604v85.454c0 11.379-9.225 20.604-20.604 20.604h41.207c11.379 0 20.604-9.225 20.604-20.604v-85.454c0-11.379-9.225-20.604-20.604-20.604z" fill="#ffc2db"/><path d="m445.081 512h-378.162c-11.379 0-20.604-9.225-20.604-20.604v-245.336h419.369v245.337c.001 11.378-9.224 20.603-20.603 20.603z" fill="#f683ae"/><path d="m424.477 246.059v245.337c0 11.379-9.224 20.604-20.604 20.604h41.207c11.379 0 20.604-9.225 20.604-20.604v-245.337z" fill="#f26d9f"/><path d="m229.442 119.398h53.116v392.602h-53.116z" fill="#c5b8d9"/><path d="m316.605 120.178h-121.21l-64.524 155.651 46.81-14.079 23.12 43.067 55.199-133.156 55.199 133.156 23.12-43.067 46.81 14.079z" fill="#f1f0f7"/><g><g><g fill="#c5b8d9"><path d="m301.297 180.935c45.745 49.743 128.751 17.378 128.751-50.201v-28.211-28.211c0-67.579-83.007-99.944-128.751-50.201-7.702 8.375-11.976 19.338-11.976 30.716v95.392c0 11.378 4.275 22.341 11.976 30.716z"/><path d="m210.703 180.935c-45.745 49.743-128.751 17.378-128.751-50.201v-28.211-28.211c0-67.579 83.007-99.944 128.751-50.201 7.702 8.375 11.976 19.338 11.976 30.716v95.392c0 11.378-4.275 22.341-11.976 30.716z"/></g><g fill="#836da6"><path d="m362.608 94.797h-35.959c-4.268 0-7.726 3.459-7.726 7.726 0 4.268 3.459 7.726 7.726 7.726h35.959c4.268 0 7.726-3.459 7.726-7.726s-3.459-7.726-7.726-7.726z"/><path d="m185.351 94.797h-35.959c-4.268 0-7.726 3.459-7.726 7.726 0 4.268 3.459 7.726 7.726 7.726h35.959c4.268 0 7.726-3.459 7.726-7.726s-3.458-7.726-7.726-7.726z"/></g><path d="m256 172.289c-39.019 0-70.649-31.631-70.649-70.649 0-39.018 31.631-70.649 70.649-70.649 39.018 0 70.649 31.631 70.649 70.649 0 39.019-31.63 70.649-70.649 70.649z" fill="#f1f0f7"/><path d="m256 30.991c-7.169 0-14.084 1.076-20.604 3.061 28.966 8.819 50.046 35.738 50.046 67.588 0 31.85-21.08 58.769-50.046 67.588 6.52 1.985 13.435 3.061 20.604 3.061 39.019 0 70.649-31.631 70.649-70.649 0-39.018-31.63-70.649-70.649-70.649z" fill="#e9e4f5"/></g></g></g></svg>